<svg t="1656661433646" class="icon" viewBox="0 0 1024 1024" version="1.1" xmlns="http://www.w3.org/2000/svg" p-id="1522" width="20" height="20"><path d="M625.728 57.472c19.264 0 34.688 6.848 48.128 20.16l208.96 207.04c14.272 13.12 21.568 29.568 21.568 49.28v504.576c0 71.808-56.256 127.744-128.576 127.744H252.16c-72.128 0-128.576-55.68-128.576-127.744V184.704c0-71.68 56.256-127.232 128.576-127.232z m-34.304 76.8H252.16c-30.144 0-51.776 21.376-51.776 50.432v653.824c0 29.44 21.888 50.944 51.776 50.944h523.648c30.016 0 51.84-21.632 51.84-50.944l-0.128-464.512H687.488A96 96 0 0 1 591.936 287.36l-0.448-9.216V134.208zM665.6 704a38.4 38.4 0 0 1 0 76.8H294.4a38.4 38.4 0 0 1 0-76.8h371.2z m0-192a38.4 38.4 0 0 1 0 76.8H294.4a38.4 38.4 0 0 1 0-76.8h371.2z m-192-192a38.4 38.4 0 1 1 0 76.8H294.4a38.4 38.4 0 1 1 0-76.8h179.2z m181.824-152.512v110.592a32 32 0 0 0 26.24 31.488l5.76 0.512h111.872L655.424 167.424z" p-id="1523"></path></svg>